<?xml version="1.0" standalone="no"?>
<!DOCTYPE svg PUBLIC "-//W3C//DTD SVG 20010904//EN"
 "http://www.w3.org/TR/2001/REC-SVG-20010904/DTD/svg10.dtd">
<svg version="1.0" xmlns="http://www.w3.org/2000/svg"
 width="500.000000pt" height="500.000000pt" viewBox="0 0 500.000000 500.000000"
 preserveAspectRatio="xMidYMid meet">
<metadata>
Created by potrace 1.16, written by Peter Selinger 2001-2019
</metadata>
<g transform="translate(0.000000,500.000000) scale(0.100000,-0.100000)"
fill="#000000" stroke="none">
<path d="M3250 2660 c-129 -21 -236 -39 -237 -39 -2 -1 -3 -7 -3 -13 0 -7 24
-30 53 -51 28 -21 62 -46 74 -56 l23 -19 -30 -66 c-17 -36 -30 -80 -30 -98 0
-18 -10 -61 -22 -95 -24 -66 -24 -67 9 -77 20 -6 22 -2 28 47 l7 54 40 -43
c38 -41 44 -44 92 -44 28 0 78 -6 112 -13 61 -13 154 -60 154 -77 0 -18 22
-10 55 19 32 28 130 71 161 71 12 0 13 13 8 79 l-7 79 29 6 c16 3 58 10 94 16
94 15 110 19 110 29 0 5 -94 81 -209 170 -178 137 -215 161 -243 160 -18 -1
-139 -18 -268 -39z"/>
<path d="M1143 2481 c-44 -12 -63 -38 -63 -85 0 -51 13 -65 78 -81 34 -9 48
-17 50 -32 6 -38 -51 -40 -63 -2 -4 13 -16 19 -35 19 -37 0 -42 -10 -29 -49
14 -40 35 -51 97 -51 67 0 102 27 102 79 0 51 -18 71 -76 86 -42 10 -49 16
-49 36 0 32 36 33 50 2 7 -17 18 -23 42 -23 28 0 33 4 33 24 0 53 -75 96 -137
77z"/>
<path d="M1500 2345 l0 -145 35 0 34 0 3 68 c3 59 5 67 23 67 18 0 20 -8 23
-67 3 -68 3 -68 32 -68 l30 0 0 78 c0 104 -21 130 -87 108 -22 -7 -23 -5 -23
48 l0 56 -35 0 -35 0 0 -145z"/>
<path d="M2120 2346 l0 -146 35 0 36 0 -3 143 -3 142 -32 3 -33 3 0 -145z"/>
<path d="M2290 2340 l0 -140 35 0 35 0 0 50 0 50 40 0 c56 0 90 34 90 90 0 30
-6 47 -25 65 -21 22 -33 25 -100 25 l-75 0 0 -140z m125 50 c0 -20 -6 -26 -27
-28 -25 -3 -28 0 -28 28 0 28 3 31 28 28 21 -2 27 -8 27 -28z"/>
<path d="M1364 2393 c-39 -7 -59 -40 -59 -98 0 -71 21 -95 85 -95 49 0 80 20
80 53 0 20 -49 24 -67 6 -18 -18 -33 -1 -33 36 0 37 15 54 33 36 6 -6 24 -11
39 -11 21 0 28 5 28 18 0 36 -55 64 -106 55z"/>
<path d="M1770 2393 c-41 -15 -60 -46 -60 -98 0 -68 26 -95 92 -95 38 0 50 5
67 26 29 37 28 105 -1 138 -23 25 -71 39 -98 29z m48 -93 c4 -40 -11 -59 -33
-40 -18 15 -20 51 -3 68 19 19 33 9 36 -28z"/>
<path d="M1973 2393 c-59 -11 -84 -113 -42 -167 17 -22 28 -26 69 -26 41 0 52
4 69 26 30 38 29 113 -1 141 -25 22 -61 32 -95 26z m45 -65 c16 -16 15 -53 -3
-68 -21 -17 -35 -4 -35 34 0 45 14 58 38 34z"/>
<path d="M2566 2390 c-30 -9 -46 -25 -46 -47 0 -17 52 -17 68 -1 9 9 15 9 24
0 7 -7 10 -12 8 -13 -64 -11 -96 -27 -104 -51 -6 -18 -6 -35 2 -52 11 -24 15
-25 93 -24 l81 0 -4 80 c-3 50 -10 84 -19 93 -19 18 -68 25 -103 15z m52 -117
c-4 -22 -38 -30 -38 -10 0 14 13 24 33 26 5 1 7 -7 5 -16z"/>
<path d="M2731 2308 c29 -80 32 -114 14 -160 -6 -15 -1 -18 31 -18 l39 0 38
113 c21 61 41 120 44 130 4 14 -1 17 -29 17 -34 0 -36 -2 -50 -52 l-15 -53
-15 50 c-14 47 -17 50 -51 53 l-37 3 31 -83z"/>
<path d="M905 2070 c4 -7 370 -10 1066 -10 699 0 1059 3 1059 10 0 7 -362 10
-1066 10 -707 0 -1063 -3 -1059 -10z"/>
</g>
</svg>
